<?xml version="1.0" encoding="utf-8"?>
<!-- Generator: Adobe Illustrator 16.0.4, SVG Export Plug-In . SVG Version: 6.00 Build 0)  -->
<!DOCTYPE svg PUBLIC "-//W3C//DTD SVG 1.1//EN" "http://www.w3.org/Graphics/SVG/1.1/DTD/svg11.dtd">
<svg version="1.1" id="Layer_1" xmlns="http://www.w3.org/2000/svg" xmlns:xlink="http://www.w3.org/1999/xlink" x="0px" y="0px"
	 width="185.656px" height="154.851px" viewBox="0 322.585 185.656 154.851" enable-background="new 0 322.585 185.656 154.851"
	 xml:space="preserve">
<title>clickfunnels-dark-logo</title>
<path fill="#334D5C" d="M175.04,322.585H10.616C4.753,322.585,0,327.338,0,333.201l0,0V466.82c0,5.863,4.753,10.616,10.616,10.616
	H175.04c5.863,0,10.616-4.753,10.616-10.616V333.201C185.656,327.338,180.903,322.585,175.04,322.585z M164.989,332.789
	c3.741,0,6.773,3.033,6.773,6.773s-3.032,6.773-6.773,6.773s-6.773-3.033-6.773-6.773S161.248,332.789,164.989,332.789
	L164.989,332.789z M140.827,332.789c3.741,0,6.773,3.033,6.773,6.773s-3.032,6.773-6.773,6.773s-6.773-3.033-6.773-6.773
	S137.086,332.789,140.827,332.789L140.827,332.789z M116.665,332.789c3.741,0,6.773,3.033,6.773,6.773s-3.032,6.773-6.773,6.773
	s-6.773-3.033-6.773-6.773l0,0C109.891,335.821,112.924,332.789,116.665,332.789z M172.022,463.694H13.546v-108.22h158.476v108.154
	V463.694z"/>
<path fill="#334D5C" d="M62.956,452.188c2.232-3.721,6.672-5.496,10.854-4.342c3.84,1.333,8.033-0.699,9.366-4.539
	c0.027-0.078,0.053-0.157,0.078-0.237c1.491-3.955-0.432-8.379-4.342-9.985c-3.795-1.722-5.94-5.797-5.21-9.899
	c0.663-4.299,4.314-7.502,8.662-7.599c4.352-0.071,7.822-3.658,7.75-8.011c-0.072-4.352-3.658-7.822-8.011-7.75
	c-4.356-0.119-8.051-3.236-8.9-7.511c-0.236-1.255-0.236-2.543,0-3.799c0.448-2.814,2.227-5.239,4.776-6.513
	c3.733-1.999,5.22-6.591,3.365-10.398c-1.385-4.038-5.78-6.188-9.817-4.803c-0.006,0.002-0.011,0.003-0.017,0.005
	c-1.962,0.786-4.14,0.847-6.144,0.174c-1.722-0.775-3.217-1.978-4.342-3.495c-1.722-2.296-2.385-5.217-1.823-8.032H23.033
	c16.781,9.009,32.759,27.114,33.15,51.146c0.434,26.051-13.351,47.087-33.627,57.073h40.856
	C60.604,460.418,60.414,455.655,62.956,452.188z"/>
<path fill="#334D5C" d="M114.038,365.895c3.373,2.772,4.334,7.533,2.301,11.397c-1.649,4.021-5.78,6.447-10.095,5.926
	c-3.99-0.773-7.852,1.834-8.626,5.824c-0.022,0.113-0.041,0.227-0.058,0.341c-0.89,4.111,1.634,8.188,5.709,9.226
	c4.019,1.114,6.766,4.818,6.665,8.987c-0.051,4.233-3.056,7.854-7.208,8.685c-4.292,0.737-7.174,4.814-6.437,9.106
	s4.814,7.174,9.107,6.437l0,0c4.321-0.548,8.448,1.966,9.943,6.057c0.419,1.207,0.61,2.48,0.564,3.756
	c0.006,2.869-1.377,5.563-3.712,7.229c-3.423,2.551-4.193,7.363-1.737,10.854c1.071,1.668,2.57,3.018,4.342,3.907h48.324
	c-15.37-7.619-29.654-21.947-33.149-42.332c-4.95-28.895,8.684-54.078,31.586-65.844h-49.258
	C110.008,358.841,110.771,363.432,114.038,365.895z"/>
<path fill="#334D5C" d="M127.953,465.214h-1.411l0,0C127.002,465.35,127.493,465.35,127.953,465.214z"/>
</svg>
