<?xml version="1.0" encoding="utf-8"?>
<!-- Generator: Adobe Illustrator 16.0.4, SVG Export Plug-In . SVG Version: 6.00 Build 0)  -->
<!DOCTYPE svg PUBLIC "-//W3C//DTD SVG 1.1//EN" "http://www.w3.org/Graphics/SVG/1.1/DTD/svg11.dtd">
<svg version="1.1" id="Layer_1" xmlns="http://www.w3.org/2000/svg" xmlns:xlink="http://www.w3.org/1999/xlink" x="0px" y="0px"
	 width="66px" height="70.042px" viewBox="0 0 66 70.042" enable-background="new 0 0 66 70.042" xml:space="preserve">
<g>
	<path fill="#334D5C" d="M15.4,62.761V6.692c-0.003-0.52-0.386-0.959-0.9-1.033l-3.389-0.444C10.537,5.127,10,5.521,9.912,6.096
		C9.904,6.146,9.9,6.196,9.9,6.246v57.008c0.005,0.581,0.48,1.048,1.061,1.043c0.05-0.001,0.1-0.005,0.149-0.012l3.388-0.492
		C15.013,63.721,15.397,63.281,15.4,62.761z"/>
	<path fill="#334D5C" d="M5.5,57.497V11.706c-0.002-0.537-0.411-0.985-0.945-1.037l-3.388-0.348
		c-0.576-0.064-1.096,0.35-1.161,0.926C0.002,11.284,0,11.321,0,11.358v46.52c0.005,0.582,0.481,1.049,1.062,1.043
		c0.039,0,0.078-0.002,0.117-0.007l3.388-0.379C5.096,58.476,5.497,58.029,5.5,57.497z"/>
	<path fill="#334D5C" d="M64.933,7.046h-0.091L21.074,0.014c-0.572-0.096-1.039,0.312-1.135,0.885C19.93,0.954,20,1.031,20,1.086
		v67.911c0,0.582,0.381,1.049,0.963,1.045c0.06-0.001,0.07-0.007,0.128-0.018l43.879-7.645C65.473,62.294,66,61.86,66,61.353V8.163
		C66,7.649,65.44,7.046,64.933,7.046z M60,56.046h0.095c-0.002,1-0.389,1.191-0.907,1.262l-30.862,4.463
		c-0.577,0.082-1.172-0.264-1.252-0.84C27.066,60.885,27,60.896,27,60.85V9.909c0-0.582,0.542-1.05,1.123-1.046
		c0.042,0,0.115,0.003,0.157,0.009l30.83,3.823C59.635,12.757,60,13.202,60,13.731V56.046z"/>
</g>
</svg>
