<?xml version="1.0" encoding="utf-8"?>
<!-- Generator: Adobe Illustrator 16.0.4, SVG Export Plug-In . SVG Version: 6.00 Build 0)  -->
<!DOCTYPE svg PUBLIC "-//W3C//DTD SVG 1.1//EN" "http://www.w3.org/Graphics/SVG/1.1/DTD/svg11.dtd">
<svg version="1.1" id="Layer_1" xmlns="http://www.w3.org/2000/svg" xmlns:xlink="http://www.w3.org/1999/xlink" x="0px" y="0px"
	 width="639.949px" height="478.582px" viewBox="79.865 147.349 639.949 478.582"
	 enable-background="new 79.865 147.349 639.949 478.582" xml:space="preserve">
<title>logos</title>
<g id="Mark_Blue">
	<path fill="#334D5C" d="M658.667,349.387l-72.96-38.187l-181.334,95.04c-2.604,1.365-5.715,1.365-8.319,0L214.72,311.2
		l-73.387,38.187c-2.592,1.399-3.56,4.634-2.16,7.227c0.494,0.915,1.245,1.666,2.16,2.16L395.84,492.106
		c2.605,1.366,5.715,1.366,8.32,0l254.507-133.333c2.592-1.399,3.559-4.635,2.16-7.227
		C660.333,350.631,659.582,349.881,658.667,349.387"/>
	<path fill="#334D5C" d="M603.307,262.027L404.16,366.347c-2.605,1.366-5.715,1.366-8.32,0l-199.146-104.32
		c-2.592-1.399-3.559-4.635-2.16-7.227c0.494-0.916,1.245-1.667,2.16-2.16L395.84,148.374c2.605-1.366,5.715-1.366,8.32,0
		l199.2,104.267c2.592,1.399,3.559,4.634,2.16,7.227c-0.494,0.915-1.245,1.666-2.16,2.16 M717.174,451.627l-80-41.813
		L404.16,531.946c-2.605,1.366-5.715,1.366-8.32,0L162.667,409.813l-80,41.813c-2.592,1.398-3.559,4.634-2.16,7.227
		c0.494,0.915,1.245,1.666,2.16,2.16L395.68,624.906c2.605,1.366,5.715,1.366,8.32,0l313.014-163.893
		c2.592-1.399,3.559-4.635,2.16-7.227c-0.494-0.916-1.245-1.666-2.16-2.16"/>
</g>
</svg>
