<?xml version="1.0" encoding="utf-8"?>
<!-- Generator: Adobe Illustrator 16.0.4, SVG Export Plug-In . SVG Version: 6.00 Build 0)  -->
<!DOCTYPE svg PUBLIC "-//W3C//DTD SVG 1.1//EN" "http://www.w3.org/Graphics/SVG/1.1/DTD/svg11.dtd">
<svg version="1.1" id="Layer_1" xmlns="http://www.w3.org/2000/svg" xmlns:xlink="http://www.w3.org/1999/xlink" x="0px" y="0px"
	 width="438.535px" height="120.699px" viewBox="0 0 438.535 120.699" enable-background="new 0 0 438.535 120.699"
	 xml:space="preserve">
<g>
	<g>
		<path fill="#FFFFFF" d="M190.929,35.153c4.724,4.018,7.085,10.187,7.085,18.509c0,8.324-2.426,14.413-7.278,18.268
			c-4.853,3.856-12.26,5.784-22.221,5.784h-8.965v18.8h-15.039V29.128h23.812C178.669,29.128,186.205,31.138,190.929,35.153z
			 M179.891,61.664c1.798-2.024,2.699-4.979,2.699-8.869c0-3.888-1.173-6.652-3.519-8.291c-2.347-1.639-5.994-2.458-10.942-2.458
			h-8.58V64.7h10.122C174.685,64.7,178.091,63.688,179.891,61.664z"/>
		<path fill="#FFFFFF" d="M234.646,57.374c-4.309,0-7.521,1.527-9.643,4.579c-2.121,3.054-3.182,7.086-3.182,12.099v22.462h-14.459
			V44.649h14.459v6.845c1.861-2.121,4.191-3.919,6.988-5.398c2.795-1.478,5.641-2.249,8.531-2.314l0.096,13.593L234.646,57.374
			L234.646,57.374z"/>
		<path fill="#FFFFFF" d="M297.885,70.581c0,7.521-2.602,13.851-7.809,18.991c-5.205,5.143-11.746,7.713-19.617,7.713
			c-7.873,0-14.412-2.57-19.617-7.713c-5.207-5.141-7.809-11.473-7.809-18.991s2.602-13.865,7.809-19.039
			c5.205-5.173,11.744-7.761,19.617-7.761c7.871,0,14.412,2.588,19.617,7.761C295.283,56.716,297.885,63.062,297.885,70.581z
			 M257.59,70.581c0,4.242,1.205,7.696,3.615,10.362c2.41,2.668,5.494,4.002,9.254,4.002s6.844-1.334,9.254-4.002
			c2.41-2.666,3.615-6.12,3.615-10.362c0-4.241-1.205-7.712-3.615-10.411c-2.41-2.699-5.494-4.049-9.254-4.049
			s-6.844,1.35-9.254,4.049C258.795,62.869,257.59,66.34,257.59,70.581z"/>
		<path fill="#FFFFFF" d="M359.486,70.581c0,7.521-2.604,13.851-7.811,18.991c-5.205,5.143-11.746,7.713-19.619,7.713
			s-14.41-2.57-19.615-7.713c-5.205-5.141-7.811-11.473-7.811-18.991s2.604-13.865,7.811-19.039
			c5.205-5.173,11.742-7.761,19.615-7.761s14.414,2.588,19.619,7.761C356.883,56.716,359.486,63.062,359.486,70.581z
			 M319.189,70.581c0,4.242,1.203,7.696,3.613,10.362c2.41,2.668,5.494,4.002,9.254,4.002c3.762,0,6.848-1.334,9.258-4.002
			c2.408-2.666,3.613-6.12,3.613-10.362c0-4.241-1.205-7.712-3.613-10.411c-2.41-2.699-5.496-4.049-9.258-4.049
			c-3.76,0-6.844,1.35-9.254,4.049C320.394,62.869,319.189,66.34,319.189,70.581z"/>
		<path fill="#FFFFFF" d="M383.199,96.514l-20.533-51.961h15.039l12.918,32.682l12.918-32.682h15.039l-20.535,51.961H383.199z"/>
		<path fill="#FFFFFF" d="M425.953,38.045c-1.639-1.639-2.457-3.646-2.457-6.025c0-2.377,0.818-4.387,2.457-6.025
			c1.639-1.638,3.646-2.458,6.025-2.458c2.377,0,4.387,0.819,6.023,2.458c1.638,1.639,2.459,3.648,2.459,6.025
			c0,2.378-0.82,4.386-2.459,6.025c-1.639,1.639-3.646,2.458-6.023,2.458C429.6,40.504,427.592,39.685,425.953,38.045z
			 M439.209,96.514h-14.461V44.649h14.461V96.514z"/>
	</g>
</g>
<path fill="#FFFFFF" d="M53.468,0C23.918,0,0,23.955,0,53.505l0.113,67.194l24-13.663v-8.597c8,5.414,18.488,8.567,29.192,8.567
	c29.55,0,53.584-23.955,53.584-53.504C106.89,23.955,83.017,0,53.468,0z M53.486,75.986c-12.417,0-22.482-10.065-22.482-22.482
	c0-12.416,10.065-22.482,22.482-22.482c12.416,0,22.482,10.066,22.482,22.482C75.968,65.921,65.902,75.986,53.486,75.986z"/>
<path fill="#FFFFFF" d="M53.486,69.178c-8.656,0-15.673-7.018-15.673-15.674c0-8.655,7.017-15.672,15.673-15.672
	c8.655,0,15.673,7.017,15.673,15.672C69.159,62.16,62.141,69.178,53.486,69.178z"/>
<circle fill="#16A085" cx="53.486" cy="53.505" r="15.673"/>
</svg>
