<?xml version="1.0" encoding="utf-8"?>
<!-- Generator: Adobe Illustrator 16.0.4, SVG Export Plug-In . SVG Version: 6.00 Build 0)  -->
<!DOCTYPE svg PUBLIC "-//W3C//DTD SVG 1.1//EN" "http://www.w3.org/Graphics/SVG/1.1/DTD/svg11.dtd">
<svg version="1.1" id="Layer_1" xmlns="http://www.w3.org/2000/svg" xmlns:xlink="http://www.w3.org/1999/xlink" x="0px" y="0px"
	 width="395px" height="394px" viewBox="0 0 395 394" enable-background="new 0 0 395 394" xml:space="preserve">
<path fill="none" d="M274.865,35c0.001,0,0.002,0,0.002,0c-42.742-24-107.416-29.831-165.264-2.807
	C167.451,5.17,232.123,11,274.865,35z"/>
<path fill="none" d="M98.617,37.546c3.629-2,7.294-3.859,10.986-5.584C105.911,33.687,102.247,35.547,98.617,37.546z"/>
<path fill="none" d="M87.842,43.966c2.368-1.521,4.754-2.979,7.158-4.374C92.597,40.987,90.21,42.445,87.842,43.966z"/>
<path fill="#334D5C" d="M383.521,0c-4.875,1-9.787,1.86-14.619,2.965c-27.338,6.251-51.631,19.353-75.008,34.271
	c-38.801,24.76-73.324,54.843-106.483,86.569c-1.983,1.897-4.934,3.394-7.64,3.852c-17.675,2.997-32.65,10.849-45.234,23.626
	c-15.9,16.144-32.035,32.062-48.058,48.086c-1.005,1.004-1.921,2.1-3.249,3.561c1.211,0.194,1.812,0.375,2.414,0.376
	c20.16,0.033,40.322,0.122,60.48-0.051c1.842-0.017,3.703-1.663,5.498-2.654c3.867-2.136,7.456-5.329,11.586-6.331
	c14.145-3.431,30.933,7.24,36.154,22.641c3.283,9.684,2.2,18.604-5.423,26.305c-1.615,1.633-2.57,4.628-2.597,7.01
	c-0.208,18.658-0.123,37.32-0.099,55.981c0.002,1.406,0.229,2.812,0.398,4.743c1.037-0.703,1.617-0.978,2.044-1.405
	c18.023-18.027,36.253-35.856,53.96-54.188c10.422-10.79,16.57-24.055,18.787-38.971c0.584-3.922,2.084-7,4.922-9.933
	c31.803-32.851,61.697-67.292,86.371-105.946c14.918-23.372,28.147-47.681,34.362-75.028c1.062-4.672,1.911-9.42,2.911-14.133
	C395,7.681,395,4,395,0C391,0,387.188,0,383.521,0z M331.869,69.464c-11.438,20.268-25.789,38.463-41.246,55.697
	c-19.121,21.319-38.965,41.988-58.516,62.921c-0.887,0.949-1.959,1.724-2.945,2.58c0.609-0.725,1.221-1.451,1.83-2.176
	c-8.129-8.263-16.259-16.526-25.062-25.473c10.473-19.146,112.652-102.29,131.21-104.474
	C335.26,62.466,333.775,66.084,331.869,69.464z"/>
<path fill="#334D5C" d="M338.775,148.311c-2.076,2.688-2.426,4.924-1.393,8.17c7.453,23.381,9.316,47.205,5.451,71.505
	c-13.391,84.182-92.797,141.844-176.871,128.344C85.676,343.439,28.79,271.219,36.308,190.552
	c5.275-56.604,33.973-98.485,84.213-124.616c37.787-19.654,77.634-21.844,118.282-8.938c1.834,0.582,4.592,0.919,5.932-0.028
	c2.546-1.801,5.076-3.624,7.597-5.46c7.56-5.512,15.026-11.155,22.534-16.741c-42.742-23.667-107.414-29.831-165.262-2.808
	c-3.692,1.725-7.357,3.585-10.986,5.584c-1.21,0.667-2.416,1.348-3.617,2.046c-2.403,1.395-4.79,2.853-7.158,4.374
	c-13.021,8.368-25.468,18.663-36.971,31.086c-66.6,71.929-67.287,182.762-1.868,255.239c65.81,72.911,176.342,83.976,254.5,25.352
	c81.438-61.084,93.16-164.923,56.48-235.737C352.91,129.428,345.984,138.979,338.775,148.311z"/>
<path fill="#474747" d="M274.867,35c0,0-0.001,0-0.002,0c-7.508,5-14.975,11.229-22.534,16.74C259.892,46.229,267.358,40,274.867,35
	z"/>
<path fill="#334D5C" d="M156.512,262.584c-2.701-2.904-5.029-5.406-8.002-8.604c11.877-6.538,22.992-12.876,34.328-18.788
	c4.549-2.373,6.43-5.669,5.655-10.475c-1.469-9.106-7.221-14.768-15.48-18.01c-4.936-1.938-9.233-0.839-13.132,3.128
	c-13.551,13.784-27.312,27.364-40.981,41.033c-1.019,1.019-1.948,2.128-3.034,3.321c2.756,2.947,5.305,5.675,8.669,9.273
	c-11.761,11.649-23.127,22.908-34.72,34.393C112.073,286.084,134.083,274.445,156.512,262.584z"/>
<path fill="#FFFFFF" d="M205.93,163.012c8.803,8.947,16.933,17.21,25.062,25.473c-0.609,0.725-1.221,1.451-1.83,2.176
	c0.986-0.856,2.059-1.631,2.945-2.58c19.551-20.933,39.395-41.602,58.516-62.921c15.457-17.234,29.809-35.429,41.246-55.697
	c1.906-3.379,3.391-6.998,5.271-10.926C318.582,60.723,216.403,143.866,205.93,163.012z"/>
</svg>
