<?xml version="1.0" encoding="utf-8"?>
<!-- Generator: Adobe Illustrator 16.0.4, SVG Export Plug-In . SVG Version: 6.00 Build 0)  -->
<!DOCTYPE svg PUBLIC "-//W3C//DTD SVG 1.1//EN" "http://www.w3.org/Graphics/SVG/1.1/DTD/svg11.dtd">
<svg version="1.1" id="Layer_1" xmlns="http://www.w3.org/2000/svg" xmlns:xlink="http://www.w3.org/1999/xlink" x="0px" y="0px"
	 width="349px" height="135.819px" viewBox="0 0 349 135.819" enable-background="new 0 0 349 135.819" xml:space="preserve">
<g id="svg_6">
	<path id="svg_3" opacity="0.7" fill="#334D5C" d="M199.7,2.614c-7,3.7-9.5,9.8-9.5,26.7c0,0,3.5-3.4,8.7-5.3
		c3.8-1.3,7-3.4,8.899-4.8c5.9-4.3,6.7-9.8,6.7-19.1C214.5,0.114,204.9-0.186,199.7,2.614L199.7,2.614z"/>
	<path id="svg_4" fill="#334D5C" d="M158.7,6.614c-5.6,5-7.3,12.9-7.3,12.9l-18.8,72.2l-15.5-59.2c-1.5-6.2-4.3-14.1-8.6-19.3
		c-5.4-6.6-16.5-7-17.7-7c-1.2,0-12.4,0.4-17.9,7.1c-4.3,5.3-7.1,13.1-8.6,19.3l-15.5,59.2l-18.6-72.3c0,0-1.6-8-7.3-12.9
		c-9.2-8.1-22.9-6.4-22.9-6.4l35.7,135.4c0,0,11.8,0.9,17.7-2.2c7.7-3.899,11.5-7,16.2-25.5c4.2-16.399,15.9-64.6,17-68.1
		c0.5-1.7,1.2-5.8,4.2-5.8c3.1,0,3.7,4,4.2,5.8c1.1,3.4,12.7,51.7,17,68.1c4.7,18.4,8.4,21.4,16.2,25.5c5.9,3.101,17.7,2.2,17.7,2.2
		l35.7-135.3C181.6,0.314,167.9-1.386,158.7,6.614z M214.5,22.314c0,0-2.2,3.4-7.3,6.4c-3.3,1.8-6.4,3.1-9.8,4.7
		c-5.601,2.7-7.2,5.8-7.2,10.4v91.8c0,0,9.1,1.101,14.899-1.8c7.601-3.9,9.301-7.6,9.4-24.5V22.314z M303.7,68.214L349,0.614
		c0,0-19.1-3.3-28.6,5.4c-6.101,5.5-12.9,15.4-12.9,15.4l-16.6,24.2c-0.9,1.2-1.801,2.6-3.5,2.6c-1.7,0-2.801-1.3-3.5-2.6
		l-16.801-24.1c0,0-6.699-9.9-12.899-15.4c-9.4-8.7-28.601-5.4-28.601-5.4l45.4,67.4l-45.4,67.3c0,0,20,2.601,29.4-6.1
		c6.1-5.5,12-14.6,12-14.6l16.6-24.101c0.9-1.2,1.801-2.6,3.5-2.6c1.7,0,2.801,1.3,3.5,2.6l16.601,24.101c0,0,6.2,8.899,12.2,14.6
		c9.399,8.7,29.1,6.1,29.1,6.1L303.7,68.214L303.7,68.214z"/>
</g>
</svg>
