<?xml version="1.0" encoding="utf-8"?>
<!-- Generator: Adobe Illustrator 16.0.4, SVG Export Plug-In . SVG Version: 6.00 Build 0)  -->
<!DOCTYPE svg PUBLIC "-//W3C//DTD SVG 1.1//EN" "http://www.w3.org/Graphics/SVG/1.1/DTD/svg11.dtd">
<svg version="1.1" id="Layer_1" xmlns="http://www.w3.org/2000/svg" xmlns:xlink="http://www.w3.org/1999/xlink" x="0px" y="0px"
	 width="2500px" height="1494px" viewBox="0 0 2500 1494" enable-background="new 0 0 2500 1494" xml:space="preserve">
<path fill="#334D5C" d="M232.117,0h2034.75c128.777,0,233.016,104.238,233.016,233.015v776.695
	c0,128.776-104.238,233.015-233.016,233.015H1537.18l100.157,245.27l-440.477-245.27H233.133
	c-128.767,0-233.005-104.238-233.005-233.015V233.015C-0.898,105.264,103.331,0,232.117,0z"/>
<path fill="#FFFFFF" d="M142.468,212.382c14.227-19.314,35.563-29.47,64.017-31.501c51.831-4.072,81.301,20.311,88.41,73.157
	c31.501,212.382,66.049,392.249,102.627,539.588l222.538-423.74c20.33-38.62,45.737-58.94,76.223-60.971
	c44.713-3.046,72.142,25.398,83.322,85.354c25.408,135.144,57.925,249.977,96.534,347.525
	c26.424-258.101,71.136-444.059,134.138-558.882c15.233-28.455,37.595-42.682,67.064-44.723
	c23.376-2.021,44.712,5.087,64.017,20.331c19.305,15.242,29.471,34.547,31.501,57.924c1.016,18.29-2.03,33.532-10.155,48.775
	c-39.635,73.167-72.161,196.125-98.574,366.831c-25.398,165.639-34.548,294.699-28.455,387.171
	c2.041,25.388-2.03,47.749-12.186,67.063c-12.206,22.352-30.485,34.548-53.862,36.579c-26.423,2.031-53.853-10.155-80.275-37.595
	c-94.503-96.543-169.701-240.836-224.569-432.889c-66.058,130.066-114.833,227.615-146.334,292.648
	c-59.955,114.833-110.761,173.772-153.442,176.819c-27.438,2.031-50.806-21.346-71.126-70.11
	c-51.821-133.122-107.714-390.218-167.66-771.275C122.147,254.039,128.24,230.662,142.468,212.382L142.468,212.382z
	 M2326.207,371.918c-36.578-64.017-90.44-102.627-162.582-117.879c-19.314-4.062-37.594-6.093-54.878-6.093
	c-97.549,0-176.81,50.806-238.796,152.427c-52.847,86.369-79.26,181.888-79.26,286.556c0,78.244,16.258,145.309,48.774,201.201
	c36.579,64.018,90.44,102.628,162.583,117.87c19.305,4.072,37.594,6.103,54.877,6.103c98.564,0,177.825-50.806,238.796-152.427
	c52.837-87.394,79.261-182.912,79.261-287.57C2375.998,492.844,2358.724,426.786,2326.207,371.918L2326.207,371.918z
	 M2198.173,653.396c-14.228,67.063-39.636,116.854-77.239,150.387c-29.46,26.423-56.898,37.594-82.297,32.516
	c-24.393-5.077-44.723-26.413-59.955-66.048c-12.206-31.501-18.289-63.002-18.289-92.472c0-25.398,2.03-50.806,7.108-74.173
	c9.149-41.666,26.423-82.316,53.853-120.926c33.541-49.801,69.104-70.111,105.684-63.002c24.392,5.077,44.722,26.423,59.955,66.048
	c12.195,31.501,18.289,63.002,18.289,92.472c0,26.424-2.031,51.821-7.108,75.188V653.396z M1690.086,371.918
	c-36.579-64.017-91.457-102.627-162.583-117.879c-19.305-4.062-37.594-6.093-54.877-6.093c-97.55,0-176.81,50.806-238.796,152.427
	c-52.837,86.369-79.261,181.888-79.261,286.556c0,78.244,16.259,145.309,48.775,201.201c36.578,64.018,90.44,102.628,162.582,117.87
	c19.314,4.072,37.594,6.103,54.878,6.103c98.564,0,177.824-50.806,238.796-152.427c52.847-87.394,79.26-182.912,79.26-287.57
	C1738.86,492.844,1722.603,426.786,1690.086,371.918L1690.086,371.918z M1561.035,653.396
	c-14.228,67.063-39.635,116.854-77.229,150.387c-29.471,26.423-56.909,37.594-82.316,32.516
	c-24.383-5.077-44.703-26.413-59.956-66.048c-12.187-31.501-18.279-63.002-18.279-92.472c0-25.398,2.031-50.806,7.108-74.173
	c9.15-41.666,26.424-82.316,53.862-120.926c33.532-49.801,69.096-70.111,105.674-63.002c24.393,5.077,44.723,26.423,59.955,66.048
	c12.206,31.501,18.29,63.002,18.29,92.472c1.024,26.424-2.031,51.821-7.109,75.188V653.396z"/>
</svg>
