<?xml version="1.0" encoding="utf-8"?>
<!-- Generator: Adobe Illustrator 16.0.4, SVG Export Plug-In . SVG Version: 6.00 Build 0)  -->
<!DOCTYPE svg PUBLIC "-//W3C//DTD SVG 1.1//EN" "http://www.w3.org/Graphics/SVG/1.1/DTD/svg11.dtd">
<svg version="1.1" id="Layer_1" xmlns="http://www.w3.org/2000/svg" xmlns:xlink="http://www.w3.org/1999/xlink" x="0px" y="0px"
	 width="168.96px" height="168.856px" viewBox="315.324 286.902 168.96 168.856"
	 enable-background="new 315.324 286.902 168.96 168.856" xml:space="preserve">
<g>
	<path fill="#334D5C" d="M404.344,383.03h21.312c6.061,0,9.899-3.333,9.899-8.687c0-5.05-3.839-8.687-9.899-8.687h-21.312
		c-0.707,0-1.313,0.606-1.313,1.212v14.95C403.131,382.525,403.637,383.03,404.344,383.03z"/>
	<path fill="#334D5C" d="M404.344,417.475h22.02c6.768,0,10.809-3.435,10.809-9.495c0-5.252-3.839-9.495-10.809-9.495h-22.02
		c-0.707,0-1.313,0.606-1.313,1.213v16.464C403.131,416.97,403.637,417.475,404.344,417.475z"/>
	<path fill="#334D5C" d="M482.323,287.272l-63.03,62.829h10.303c16.061,0,25.556,10.101,25.556,21.111
		c0,8.687-5.858,15.051-12.121,17.879c-1.01,0.404-1.01,1.818,0.101,2.222c7.273,2.829,12.425,10.404,12.425,19.293
		c0,12.524-8.384,22.524-24.646,22.524h-44.646c-0.707,0-1.313-0.605-1.313-1.212v-47.576l-69.191,68.889
		c-0.909,0.909-0.304,2.525,1.01,2.525h166.363c0.606,0,1.111-0.505,1.111-1.111V288.182
		C484.546,287.071,483.131,286.465,482.323,287.272z"/>
</g>
</svg>
