<?xml version="1.0" encoding="utf-8"?>
<!-- Generator: Adobe Illustrator 16.0.4, SVG Export Plug-In . SVG Version: 6.00 Build 0)  -->
<!DOCTYPE svg PUBLIC "-//W3C//DTD SVG 1.1//EN" "http://www.w3.org/Graphics/SVG/1.1/DTD/svg11.dtd">
<svg version="1.1" id="Layer_1" xmlns="http://www.w3.org/2000/svg" xmlns:xlink="http://www.w3.org/1999/xlink" x="0px" y="0px"
	 width="2480px" height="3210px" viewBox="0 0 2480 3210" enable-background="new 0 0 2480 3210" xml:space="preserve">
<title>Group 10</title>
<desc>Created with Sketch.</desc>
<g id="Page-1">
	<defs>
		<filter id="Adobe_OpacityMaskFilter" filterUnits="userSpaceOnUse" x="-78" y="-78" width="2636" height="3366">
			<feColorMatrix  type="matrix" values="1 0 0 0 0  0 1 0 0 0  0 0 1 0 0  0 0 0 1 0"/>
		</filter>
	</defs>
	<mask maskUnits="userSpaceOnUse" x="-78" y="-78" width="2636" height="3366" id="mask-2">
		<g filter="url(#Adobe_OpacityMaskFilter)">
			<polygon id="path-1" fill="#FFFFFF" points="0,0 2480,0 2480,3210 0,3210 			"/>
		</g>
		<g>
			<rect id="path-3" x="901" y="586" fill="#FFFFFF" width="63.129" height="62.747"/>
		</g>
		<g>
			<rect id="path-5" x="1005" y="674" fill="#FFFFFF" width="37" height="36.78"/>
		</g>
		<g>
			<rect id="path-7" x="1005" y="734" fill="#FFFFFF" width="37" height="36.78"/>
		</g>
		<g>
			<rect id="path-9" x="1005" y="794" fill="#FFFFFF" width="37" height="36.78"/>
		</g>
		<g>
			<rect id="path-11" x="901" y="947" fill="#FFFFFF" width="63.129" height="62.747"/>
		</g>
		<g>
			<rect id="path-13" x="1005" y="1035" fill="#FFFFFF" width="37" height="36.779"/>
		</g>
		<g>
			<rect id="path-15" x="1005" y="1095" fill="#FFFFFF" width="37" height="36.779"/>
		</g>
		<g>
			<rect id="path-17" x="1005" y="1155" fill="#FFFFFF" width="37" height="36.779"/>
		</g>
		<g>
			<rect id="path-19" x="901" y="1308" fill="#FFFFFF" width="63.129" height="62.747"/>
		</g>
		<g>
			<rect id="path-21" x="1005" y="1396" fill="#FFFFFF" width="37" height="36.779"/>
		</g>
		<g>
			<rect id="path-23" x="1005" y="1456" fill="#FFFFFF" width="37" height="36.779"/>
		</g>
		<g>
			<rect id="path-25" x="1005" y="1516" fill="#FFFFFF" width="37" height="36.779"/>
		</g>
		<g>
			<rect id="path-27" x="1005" y="1576" fill="#FFFFFF" width="37" height="36.779"/>
		</g>
		<g>
			<rect id="path-29" x="901" y="1729" fill="#FFFFFF" width="63.129" height="62.747"/>
		</g>
		<g>
			<rect id="path-31" x="1005" y="1817" fill="#FFFFFF" width="37" height="36.779"/>
		</g>
		<g>
			<rect id="path-33" x="1005" y="1877" fill="#FFFFFF" width="37" height="36.779"/>
		</g>
		<g>
			<rect id="path-35" x="1005" y="1937" fill="#FFFFFF" width="37" height="36.779"/>
		</g>
		<g>
			<rect id="path-37" x="1005" y="1997" fill="#FFFFFF" width="37" height="36.779"/>
		</g>
		<g>
			<rect id="path-39" x="901" y="2150" fill="#FFFFFF" width="63.129" height="62.747"/>
		</g>
		<g>
			<rect id="path-41" x="1005" y="2238" fill="#FFFFFF" width="37" height="36.779"/>
		</g>
		<g>
			<rect id="path-43" x="1005" y="2298" fill="#FFFFFF" width="37" height="36.779"/>
		</g>
		<g>
			<rect id="path-45" x="1005" y="2358" fill="#FFFFFF" width="37" height="36.779"/>
		</g>
		<g>
			<rect id="path-47" x="1005" y="2418" fill="#FFFFFF" width="37" height="36.779"/>
		</g>
		<g>
			<rect id="path-49" x="1005" y="2478" fill="#FFFFFF" width="37" height="36.779"/>
		</g>
	</mask>
	<g id="Group-10" mask="url(#mask-2)">
		<g id="Rectangle-320">
			<polygon id="path-1_1_" fill="#354E5D" stroke="#FFFFFF" stroke-width="156" points="0,0 2480,0 2480,3210 0,3210 			"/>
		</g>
		<path id="Rectangle-106" fill="#FFFFFF" d="M558,230h1363c4.418,0,8,3.582,8,8v2753c0,4.418-3.582,8-8,8H558c-4.418,0-8-3.582-8-8
			V238C550,233.582,553.582,230,558,230z"/>
		<g enable-background="new    ">
			<path fill="#354E5D" d="M704.127,403.258c0,6.793-2.456,12.121-7.367,15.988c-4.911,3.865-11.686,5.799-20.324,5.799
				c-8.639,0-15.709-1.341-21.212-4.023v-11.807c3.482,1.637,7.184,2.926,11.103,3.865c3.918,0.941,7.566,1.411,10.945,1.411
				c4.945,0,8.595-0.94,10.945-2.821c2.352-1.881,3.527-4.406,3.527-7.576c0-2.855-1.08-5.276-3.239-7.262
				c-2.16-1.985-6.618-4.336-13.375-7.053c-6.967-2.822-11.878-6.043-14.733-9.666c-2.856-3.622-4.284-7.976-4.284-13.062
				c0-6.374,2.264-11.39,6.792-15.047c4.527-3.657,10.606-5.485,18.234-5.485c7.314,0,14.594,1.602,21.839,4.807l-3.971,10.188
				c-6.792-2.855-12.853-4.284-18.182-4.284c-4.041,0-7.105,0.88-9.195,2.639s-3.135,4.084-3.135,6.975
				c0,1.985,0.418,3.684,1.254,5.094c0.836,1.411,2.211,2.743,4.127,3.997c1.915,1.254,5.363,2.908,10.345,4.963
				c5.607,2.334,9.718,4.512,12.33,6.531c2.612,2.021,4.527,4.302,5.747,6.844C703.517,396.814,704.127,399.811,704.127,403.258z"/>
			<path fill="#354E5D" d="M768.86,395.004c0,9.438-2.421,16.806-7.262,22.1c-4.842,5.295-11.582,7.941-20.219,7.941
				c-5.399,0-10.171-1.219-14.315-3.657c-4.146-2.438-7.333-5.938-9.561-10.501c-2.229-4.563-3.344-9.857-3.344-15.883
				c0-9.37,2.403-16.685,7.21-21.943c4.807-5.26,11.581-7.89,20.324-7.89c8.359,0,14.977,2.69,19.854,8.072
				C766.421,378.624,768.86,385.878,768.86,395.004z M726.802,395.004c0,13.34,4.928,20.01,14.786,20.01
				c9.752,0,14.629-6.67,14.629-20.01c0-13.201-4.911-19.802-14.733-19.802c-5.155,0-8.891,1.707-11.207,5.12
				C727.959,383.736,726.802,388.629,726.802,395.004z"/>
			<path fill="#354E5D" d="M806.268,425.045c-8.743,0-15.387-2.551-19.932-7.654c-4.546-5.102-6.818-12.426-6.818-21.969
				c0-9.719,2.377-17.189,7.132-22.414c4.754-5.225,11.625-7.837,20.611-7.837c6.095,0,11.581,1.132,16.458,3.396l-3.709,9.875
				c-5.19-2.02-9.475-3.03-12.853-3.03c-9.997,0-14.995,6.636-14.995,19.905c0,6.479,1.245,11.347,3.735,14.604
				s6.139,4.885,10.946,4.885c5.468,0,10.64-1.358,15.517-4.075v10.71c-2.194,1.289-4.537,2.213-7.027,2.77
				S809.821,425.045,806.268,425.045z"/>
			<path fill="#354E5D" d="M835.212,350.908c0-2.195,0.601-3.884,1.803-5.068c1.201-1.184,2.917-1.776,5.146-1.776
				c2.159,0,3.84,0.593,5.042,1.776c1.202,1.185,1.803,2.873,1.803,5.068c0,2.09-0.601,3.735-1.803,4.937
				c-1.201,1.202-2.882,1.803-5.042,1.803c-2.229,0-3.945-0.601-5.146-1.803C835.813,354.644,835.212,352.998,835.212,350.908z
				 M848.222,424h-12.278v-57.784h12.278V424z"/>
			<path fill="#354E5D" d="M901.931,424l-2.456-8.046h-0.418c-2.787,3.519-5.59,5.913-8.412,7.184
				c-2.821,1.271-6.444,1.907-10.867,1.907c-5.678,0-10.109-1.532-13.297-4.598c-3.187-3.064-4.78-7.401-4.78-13.01
				c0-5.955,2.211-10.449,6.635-13.479c4.423-3.031,11.163-4.685,20.219-4.964l9.979-0.313V385.6c0-3.692-0.862-6.453-2.586-8.281
				c-1.724-1.829-4.397-2.743-8.02-2.743c-2.961,0-5.799,0.436-8.516,1.306c-2.717,0.871-5.329,1.899-7.837,3.083l-3.971-8.777
				c3.135-1.637,6.565-2.882,10.292-3.735c3.727-0.854,7.244-1.28,10.554-1.28c7.349,0,12.896,1.603,16.641,4.807
				c3.744,3.205,5.616,8.237,5.616,15.099V424H901.931z M883.645,415.641c4.458,0,8.037-1.245,10.736-3.735
				s4.049-5.982,4.049-10.476v-5.016l-7.419,0.313c-5.782,0.209-9.988,1.176-12.618,2.899c-2.63,1.725-3.944,4.363-3.944,7.916
				c0,2.577,0.766,4.571,2.299,5.981C878.28,414.936,880.579,415.641,883.645,415.641z"/>
			<path fill="#354E5D" d="M940.123,424h-12.278v-81.295h12.278V424z"/>
			<path fill="#354E5D" d="M1037.353,370.709c0,7.977-2.612,14.089-7.837,18.338c-5.225,4.25-12.662,6.375-22.309,6.375h-7.941V424
				h-12.487v-76.384h21.996c9.543,0,16.692,1.951,21.447,5.852C1034.975,357.369,1037.353,363.116,1037.353,370.709z
				 M999.265,384.92h6.635c6.408,0,11.11-1.114,14.106-3.344c2.995-2.229,4.493-5.712,4.493-10.449c0-4.389-1.341-7.662-4.023-9.822
				c-2.683-2.159-6.862-3.239-12.539-3.239h-8.673V384.92z"/>
			<path fill="#354E5D" d="M1080.613,365.171c2.473,0,4.51,0.175,6.111,0.522l-1.201,11.441c-1.742-0.418-3.553-0.627-5.434-0.627
				c-4.91,0-8.891,1.603-11.938,4.807c-3.049,3.205-4.572,7.367-4.572,12.487V424h-12.277v-57.784h9.613l1.619,10.188h0.627
				c1.916-3.449,4.414-6.183,7.498-8.203C1073.742,366.182,1077.061,365.171,1080.613,365.171z"/>
			<path fill="#354E5D" d="M1148.689,395.004c0,9.438-2.422,16.806-7.263,22.1c-4.842,5.295-11.581,7.941-20.22,7.941
				c-5.398,0-10.17-1.219-14.314-3.657c-4.146-2.438-7.333-5.938-9.562-10.501c-2.229-4.563-3.344-9.857-3.344-15.883
				c0-9.37,2.403-16.685,7.21-21.943c4.807-5.26,11.581-7.89,20.324-7.89c8.359,0,14.977,2.69,19.854,8.072
				C1146.251,378.624,1148.689,385.878,1148.689,395.004z M1106.631,395.004c0,13.34,4.929,20.01,14.785,20.01
				c9.753,0,14.629-6.67,14.629-20.01c0-13.201-4.91-19.802-14.732-19.802c-5.155,0-8.892,1.707-11.207,5.12
				C1107.788,383.736,1106.631,388.629,1106.631,395.004z"/>
			<path fill="#354E5D" d="M1214.049,395.004c0,9.438-2.422,16.806-7.263,22.1c-4.842,5.295-11.581,7.941-20.22,7.941
				c-5.398,0-10.17-1.219-14.314-3.657c-4.146-2.438-7.333-5.938-9.562-10.501c-2.229-4.563-3.344-9.857-3.344-15.883
				c0-9.37,2.403-16.685,7.21-21.943c4.807-5.26,11.581-7.89,20.324-7.89c8.359,0,14.977,2.69,19.854,8.072
				C1211.61,378.624,1214.049,385.878,1214.049,395.004z M1171.99,395.004c0,13.34,4.929,20.01,14.785,20.01
				c9.753,0,14.629-6.67,14.629-20.01c0-13.201-4.91-19.802-14.732-19.802c-5.155,0-8.892,1.707-11.207,5.12
				C1173.147,383.736,1171.99,388.629,1171.99,395.004z"/>
			<path fill="#354E5D" d="M1257.151,375.516h-14.105V424h-12.33v-48.484h-9.51v-5.747l9.51-3.762v-3.762
				c0-6.826,1.602-11.886,4.807-15.178c3.204-3.291,8.098-4.937,14.681-4.937c4.318,0,8.568,0.714,12.748,2.142l-3.239,9.3
				c-3.03-0.975-5.922-1.463-8.673-1.463c-2.787,0-4.815,0.862-6.087,2.586c-1.271,1.725-1.906,4.311-1.906,7.759v3.762h14.105
				V375.516z"/>
			<path fill="#354E5D" d="M1328.572,357.229c-7.175,0-12.817,2.543-16.928,7.628c-4.109,5.086-6.164,12.104-6.164,21.055
				c0,9.37,1.976,16.458,5.93,21.265c3.952,4.807,9.674,7.21,17.162,7.21c3.24,0,6.375-0.321,9.404-0.967
				c3.031-0.644,6.183-1.471,9.457-2.481v10.71c-5.991,2.265-12.783,3.396-20.376,3.396c-11.181,0-19.767-3.387-25.757-10.162
				c-5.991-6.773-8.986-16.466-8.986-29.074c0-7.941,1.453-14.891,4.362-20.847c2.907-5.956,7.113-10.519,12.617-13.688
				c5.503-3.169,11.964-4.754,19.384-4.754c7.802,0,15.012,1.637,21.629,4.91l-4.492,10.397c-2.578-1.219-5.304-2.29-8.177-3.213
				C1334.764,357.691,1331.742,357.229,1328.572,357.229z"/>
			<path fill="#354E5D" d="M1413.42,424h-12.33v-35.527c0-4.458-0.897-7.785-2.691-9.979c-1.794-2.195-4.642-3.292-8.542-3.292
				c-5.155,0-8.943,1.541-11.363,4.624c-2.422,3.082-3.632,8.246-3.632,15.49V424h-12.277v-81.295h12.277v20.637
				c0,3.31-0.209,6.845-0.627,10.606h0.784c1.672-2.786,3.997-4.945,6.975-6.479c2.979-1.532,6.452-2.299,10.423-2.299
				c14.002,0,21.004,7.054,21.004,21.159V424z"/>
			<path fill="#354E5D" d="M1455.738,425.045c-8.986,0-16.013-2.62-21.081-7.863c-5.067-5.241-7.602-12.461-7.602-21.656
				c0-9.438,2.351-16.857,7.054-22.256c4.701-5.399,11.162-8.099,19.383-8.099c7.628,0,13.653,2.316,18.077,6.948
				c4.423,4.633,6.636,11.007,6.636,19.123v6.635h-38.506c0.174,5.608,1.689,9.919,4.545,12.931c2.856,3.014,6.879,4.52,12.069,4.52
				c3.413,0,6.591-0.321,9.535-0.967c2.942-0.644,6.104-1.715,9.482-3.213v9.979c-2.996,1.428-6.026,2.438-9.091,3.029
				C1463.175,424.749,1459.675,425.045,1455.738,425.045z M1453.492,374.471c-3.901,0-7.027,1.236-9.378,3.709
				c-2.352,2.474-3.754,6.079-4.206,10.815h26.228c-0.07-4.771-1.22-8.386-3.448-10.841
				C1460.458,375.698,1457.393,374.471,1453.492,374.471z"/>
			<path fill="#354E5D" d="M1515.456,425.045c-8.743,0-15.387-2.551-19.932-7.654c-4.546-5.102-6.818-12.426-6.818-21.969
				c0-9.719,2.377-17.189,7.132-22.414c4.754-5.225,11.625-7.837,20.611-7.837c6.095,0,11.58,1.132,16.457,3.396l-3.709,9.875
				c-5.19-2.02-9.475-3.03-12.854-3.03c-9.996,0-14.994,6.636-14.994,19.905c0,6.479,1.245,11.347,3.735,14.604
				s6.14,4.885,10.946,4.885c5.468,0,10.64-1.358,15.517-4.075v10.71c-2.194,1.289-4.537,2.213-7.027,2.77
				S1519.009,425.045,1515.456,425.045z"/>
			<path fill="#354E5D" d="M1556.992,393.488l6.949-8.673l17.45-18.6h14.159l-23.25,24.817L1597.014,424h-14.42l-18.548-25.34
				l-6.739,5.539V424h-12.174v-81.295h12.174v39.654l-0.627,11.129H1556.992z"/>
			<path fill="#354E5D" d="M1618.59,424h-12.277v-81.295h12.277V424z"/>
			<path fill="#354E5D" d="M1635.413,350.908c0-2.195,0.601-3.884,1.803-5.068c1.201-1.184,2.917-1.776,5.146-1.776
				c2.16,0,3.841,0.593,5.042,1.776c1.202,1.185,1.803,2.873,1.803,5.068c0,2.09-0.601,3.735-1.803,4.937
				c-1.201,1.202-2.882,1.803-5.042,1.803c-2.229,0-3.944-0.601-5.146-1.803C1636.014,354.644,1635.413,352.998,1635.413,350.908z
				 M1648.422,424h-12.277v-57.784h12.277V424z"/>
			<path fill="#354E5D" d="M1704.796,407.543c0,5.643-2.055,9.971-6.164,12.982c-4.11,3.014-9.997,4.52-17.66,4.52
				c-7.697,0-13.88-1.167-18.547-3.5v-10.606c6.792,3.135,13.113,4.702,18.965,4.702c7.559,0,11.338-2.281,11.338-6.844
				c0-1.463-0.418-2.683-1.254-3.658c-0.836-0.975-2.212-1.984-4.127-3.029c-1.916-1.045-4.581-2.229-7.994-3.553
				c-6.653-2.578-11.154-5.155-13.506-7.732c-2.351-2.578-3.526-5.922-3.526-10.031c0-4.946,1.993-8.786,5.982-11.521
				c3.987-2.734,9.412-4.102,16.274-4.102c6.792,0,13.219,1.376,19.279,4.128l-3.971,9.247c-6.235-2.577-11.478-3.866-15.727-3.866
				c-6.479,0-9.718,1.847-9.718,5.538c0,1.812,0.844,3.344,2.534,4.598c1.688,1.254,5.372,2.978,11.05,5.173
				c4.771,1.846,8.237,3.535,10.397,5.067c2.159,1.533,3.762,3.301,4.807,5.303C1704.274,402.362,1704.796,404.756,1704.796,407.543
				z"/>
			<path fill="#354E5D" d="M1739.592,415.118c2.995,0,5.99-0.47,8.986-1.411v9.248c-1.358,0.593-3.108,1.088-5.251,1.489
				c-2.142,0.399-4.362,0.601-6.661,0.601c-11.634,0-17.45-6.13-17.45-18.391v-31.139h-7.89v-5.434l8.465-4.493l4.18-12.226h7.575
				v12.853h16.458v9.3h-16.458v30.93c0,2.961,0.739,5.146,2.221,6.557C1735.246,414.413,1737.188,415.118,1739.592,415.118z"/>
		</g>
		<g id="Rectangle-17">
			<rect id="path-3_1_" x="901" y="586" fill="none" stroke="#354E5D" stroke-width="18" width="63.129" height="62.747"/>
		</g>
		<g id="Rectangle-17_1_">
			<rect id="path-5_1_" x="1005" y="674" fill="none" stroke="#354E5D" stroke-width="16" width="37" height="36.78"/>
		</g>
		<g id="Rectangle-17_2_">
			<rect id="path-7_1_" x="1005" y="734" fill="none" stroke="#354E5D" stroke-width="16" width="37" height="36.78"/>
		</g>
		<g id="Rectangle-17_3_">
			<rect id="path-9_1_" x="1005" y="794" fill="none" stroke="#354E5D" stroke-width="16" width="37" height="36.78"/>
		</g>
		<g id="Group-21" transform="translate(831.000000, 2649.000000)">
			<g id="Group-20">
				<path id="Fill-3" fill="#334D5C" d="M334.282,113.99c3.351-3.749,5.03-9.223,5.03-16.429c0-7.202-2.187-12.323-6.557-15.358
					c-4.373-3.037-11.17-4.552-20.391-4.552h-15.989v41.965h18.862C324.581,119.616,330.928,117.74,334.282,113.99L334.282,113.99z
					 M354.852,64.881c8.804,7.442,13.205,18.87,13.205,34.286c0,15.42-4.522,26.7-13.564,33.843
					c-9.043,7.144-22.847,10.715-41.408,10.715h-16.708v34.824H268.35V53.721h44.375C332.005,53.721,346.049,57.442,354.852,64.881
					L354.852,64.881z"/>
				<path id="Fill-5" fill="#334D5C" d="M436.595,106.688c-8.026,0-14.014,2.829-17.967,8.482
					c-3.952,5.655-5.928,13.126-5.928,22.413v41.609h-26.946V83.114H412.7v12.682c3.472-3.929,7.813-7.262,13.026-9.999
					c5.208-2.74,10.508-4.168,15.897-4.289l0.179,25.181H436.595z"/>
				<path id="Fill-7" fill="#334D5C" d="M478.105,131.153c0,7.858,2.245,14.259,6.736,19.197c4.491,4.942,10.238,7.412,17.245,7.412
					s12.758-2.47,17.249-7.412c4.491-4.938,6.736-11.339,6.736-19.197c0-7.855-2.245-14.286-6.736-19.285
					c-4.491-5-10.242-7.501-17.249-7.501s-12.754,2.501-17.245,7.501C480.351,116.867,478.105,123.298,478.105,131.153
					 M553.2,131.153c0,13.931-4.853,25.659-14.553,35.181c-9.699,9.527-21.889,14.287-36.561,14.287s-26.857-4.76-36.558-14.287
					c-9.699-9.521-14.552-21.25-14.552-35.181c0-13.929,4.853-25.684,14.552-35.269c9.7-9.583,21.886-14.377,36.558-14.377
					s26.861,4.794,36.561,14.377C548.348,105.47,553.2,117.225,553.2,131.153"/>
				<path id="Fill-9" fill="#334D5C" d="M591.781,131.153c0,7.858,2.245,14.259,6.736,19.197c4.491,4.942,10.238,7.412,17.245,7.412
					s12.758-2.47,17.249-7.412c4.491-4.938,6.737-11.339,6.737-19.197c0-7.855-2.246-14.286-6.737-19.285
					c-4.491-5-10.242-7.501-17.249-7.501s-12.754,2.501-17.245,7.501C594.026,116.867,591.781,123.298,591.781,131.153
					 M666.876,131.153c0,13.931-4.853,25.659-14.552,35.181c-9.7,9.527-21.89,14.287-36.562,14.287
					c-14.671,0-26.857-4.76-36.557-14.287c-9.7-9.521-14.553-21.25-14.553-35.181c0-13.929,4.853-25.684,14.553-35.269
					c9.699-9.583,21.886-14.377,36.557-14.377c14.672,0,26.861,4.794,36.562,14.377C662.023,105.47,666.876,117.225,666.876,131.153
					"/>
				<polygon id="Fill-11" fill="#334D5C" points="709.144,179.615 670.875,83.36 698.901,83.36 722.975,143.9 747.048,83.36 
					775.073,83.36 736.81,179.615 				"/>
				<path id="Fill-13" fill="#334D5C" d="M786.889,177.791h26.944V81.714h-26.944V177.791z M789.134,69.48
					c-3.054-3.035-4.582-6.755-4.582-11.16c0-4.402,1.528-8.126,4.582-11.16c3.055-3.037,6.797-4.554,11.228-4.554
					c4.43,0,8.172,1.517,11.227,4.554c3.058,3.034,4.582,6.758,4.582,11.16c0,4.405-1.524,8.125-4.582,11.16
					c-3.055,3.037-6.797,4.555-11.227,4.555C795.931,74.035,792.188,72.518,789.134,69.48L789.134,69.48z"/>
				<path id="Fill-15" fill="#334D5C" d="M99.674,140.763c-23.14,0-41.896-18.647-41.896-41.649c0-23,18.757-41.648,41.896-41.648
					c23.138,0,41.896,18.648,41.896,41.648C141.569,122.115,122.812,140.763,99.674,140.763 M99.64,0C44.574,0,0,44.375,0,99.115
					L0.211,223.59l44.725-25.311v-15.926c14.908,10.029,34.455,15.874,54.402,15.874c55.068,0,99.856-44.376,99.856-99.112
					C199.194,44.375,154.706,0,99.64,0"/>
				<path id="Fill-16" fill="#FFFFFF" d="M98.158,128.46c-16.131,0-29.207-13-29.207-29.035c0-16.033,13.076-29.031,29.207-29.031
					c16.129,0,29.207,12.998,29.207,29.031C127.365,115.46,114.287,128.46,98.158,128.46"/>
				<path id="Fill-17" fill="#16A085" d="M98.158,70.394c-16.131,0-29.207,12.998-29.207,29.031
					c0,16.035,13.076,29.035,29.207,29.035c16.129,0,29.207-13,29.207-29.035C127.365,83.392,114.287,70.394,98.158,70.394"/>
			</g>
		</g>
		<rect id="Rectangle-172" x="1005" y="595" fill="#354E5D" width="543" height="44"/>
		<rect id="Rectangle-172_1_" x="1067" y="677" fill="#354E5D" width="543" height="30"/>
		<rect id="Rectangle-172_2_" x="1067" y="737" fill="#354E5D" width="543" height="30"/>
		<rect id="Rectangle-172_3_" x="1067" y="797" fill="#354E5D" width="543" height="30"/>
		<g id="Rectangle-17_4_">
			<rect id="path-11_1_" x="901" y="947" fill="none" stroke="#354E5D" stroke-width="18" width="63.129" height="62.747"/>
		</g>
		<g id="Rectangle-17_5_">
			<rect id="path-13_1_" x="1005" y="1035" fill="none" stroke="#354E5D" stroke-width="16" width="37" height="36.779"/>
		</g>
		<g id="Rectangle-17_6_">
			<rect id="path-15_1_" x="1005" y="1095" fill="none" stroke="#354E5D" stroke-width="16" width="37" height="36.779"/>
		</g>
		<g id="Rectangle-17_7_">
			<rect id="path-17_1_" x="1005" y="1155" fill="none" stroke="#354E5D" stroke-width="16" width="37" height="36.779"/>
		</g>
		<rect id="Rectangle-172_4_" x="1005" y="956" fill="#354E5D" width="543" height="44"/>
		<rect id="Rectangle-172_5_" x="1067" y="1038" fill="#354E5D" width="543" height="30"/>
		<rect id="Rectangle-172_6_" x="1067" y="1098" fill="#354E5D" width="543" height="30"/>
		<rect id="Rectangle-172_7_" x="1067" y="1158" fill="#354E5D" width="543" height="30"/>
		<g id="Rectangle-17_8_">
			<rect id="path-19_1_" x="901" y="1308" fill="none" stroke="#354E5D" stroke-width="18" width="63.129" height="62.747"/>
		</g>
		<g id="Rectangle-17_9_">
			<rect id="path-21_1_" x="1005" y="1396" fill="none" stroke="#354E5D" stroke-width="16" width="37" height="36.779"/>
		</g>
		<g id="Rectangle-17_10_">
			<rect id="path-23_1_" x="1005" y="1456" fill="none" stroke="#354E5D" stroke-width="16" width="37" height="36.779"/>
		</g>
		<g id="Rectangle-17_11_">
			<rect id="path-25_1_" x="1005" y="1516" fill="none" stroke="#354E5D" stroke-width="16" width="37" height="36.779"/>
		</g>
		<rect id="Rectangle-172_8_" x="1005" y="1317" fill="#354E5D" width="543" height="44"/>
		<rect id="Rectangle-172_9_" x="1067" y="1399" fill="#354E5D" width="543" height="30"/>
		<rect id="Rectangle-172_10_" x="1067" y="1459" fill="#354E5D" width="543" height="30"/>
		<rect id="Rectangle-172_11_" x="1067" y="1519" fill="#354E5D" width="543" height="30"/>
		<g id="Rectangle-17_12_">
			<rect id="path-27_1_" x="1005" y="1576" fill="none" stroke="#354E5D" stroke-width="16" width="37" height="36.779"/>
		</g>
		<rect id="Rectangle-172_12_" x="1067" y="1579" fill="#354E5D" width="543" height="30"/>
		<g id="Rectangle-17_13_">
			<rect id="path-29_1_" x="901" y="1729" fill="none" stroke="#354E5D" stroke-width="18" width="63.129" height="62.747"/>
		</g>
		<g id="Rectangle-17_14_">
			<rect id="path-31_1_" x="1005" y="1817" fill="none" stroke="#354E5D" stroke-width="16" width="37" height="36.779"/>
		</g>
		<g id="Rectangle-17_15_">
			<rect id="path-33_1_" x="1005" y="1877" fill="none" stroke="#354E5D" stroke-width="16" width="37" height="36.779"/>
		</g>
		<g id="Rectangle-17_16_">
			<rect id="path-35_1_" x="1005" y="1937" fill="none" stroke="#354E5D" stroke-width="16" width="37" height="36.779"/>
		</g>
		<rect id="Rectangle-172_13_" x="1005" y="1738" fill="#354E5D" width="543" height="44"/>
		<rect id="Rectangle-172_14_" x="1067" y="1820" fill="#354E5D" width="543" height="30"/>
		<rect id="Rectangle-172_15_" x="1067" y="1880" fill="#354E5D" width="543" height="30"/>
		<rect id="Rectangle-172_16_" x="1067" y="1940" fill="#354E5D" width="543" height="30"/>
		<g id="Rectangle-17_17_">
			<rect id="path-37_1_" x="1005" y="1997" fill="none" stroke="#354E5D" stroke-width="16" width="37" height="36.779"/>
		</g>
		<rect id="Rectangle-172_17_" x="1067" y="2000" fill="#354E5D" width="543" height="30"/>
		<g id="Rectangle-17_18_">
			<rect id="path-39_1_" x="901" y="2150" fill="none" stroke="#354E5D" stroke-width="18" width="63.129" height="62.747"/>
		</g>
		<g id="Rectangle-17_19_">
			<rect id="path-41_1_" x="1005" y="2238" fill="none" stroke="#354E5D" stroke-width="16" width="37" height="36.779"/>
		</g>
		<g id="Rectangle-17_20_">
			<rect id="path-43_1_" x="1005" y="2298" fill="none" stroke="#354E5D" stroke-width="16" width="37" height="36.779"/>
		</g>
		<g id="Rectangle-17_21_">
			<rect id="path-45_1_" x="1005" y="2358" fill="none" stroke="#354E5D" stroke-width="16" width="37" height="36.779"/>
		</g>
		<rect id="Rectangle-172_18_" x="1005" y="2159" fill="#354E5D" width="543" height="44"/>
		<rect id="Rectangle-172_19_" x="1067" y="2241" fill="#354E5D" width="543" height="30"/>
		<rect id="Rectangle-172_20_" x="1067" y="2301" fill="#354E5D" width="543" height="30"/>
		<rect id="Rectangle-172_21_" x="1067" y="2361" fill="#354E5D" width="543" height="30"/>
		<g id="Rectangle-17_22_">
			<rect id="path-47_1_" x="1005" y="2418" fill="none" stroke="#354E5D" stroke-width="16" width="37" height="36.779"/>
		</g>
		<rect id="Rectangle-172_22_" x="1067" y="2421" fill="#354E5D" width="543" height="30"/>
		<g id="Rectangle-17_23_">
			<rect id="path-49_1_" x="1005" y="2478" fill="none" stroke="#354E5D" stroke-width="16" width="37" height="36.779"/>
		</g>
		<rect id="Rectangle-172_23_" x="1067" y="2481" fill="#354E5D" width="543" height="30"/>
	</g>
</g>
</svg>
