<?xml version="1.0" encoding="utf-8"?>
<!-- Generator: Adobe Illustrator 16.0.4, SVG Export Plug-In . SVG Version: 6.00 Build 0)  -->
<!DOCTYPE svg PUBLIC "-//W3C//DTD SVG 1.1//EN" "http://www.w3.org/Graphics/SVG/1.1/DTD/svg11.dtd">
<svg version="1.1" id="Layer_1" xmlns="http://www.w3.org/2000/svg" xmlns:xlink="http://www.w3.org/1999/xlink" x="0px" y="0px"
	 width="293.106px" height="309.588px" viewBox="0 0 293.106 309.588" enable-background="new 0 0 293.106 309.588"
	 xml:space="preserve">
<g>
	<path fill="#334D5C" d="M9.895,133.599c-0.101,0.541,0.268,1.195,0.817,1.195h271.685c0.55,0,0.918-0.654,0.817-1.194
		l-4.154-18.529c-0.141-0.531,0.136-1.24,0.615-1.509l12.842-7.232c0.479-0.269,0.715-0.924,0.522-1.439l-7.606-18.371
		c-0.229-0.5-0.849-0.791-1.378-0.643l-14.201,3.992c-0.529,0.149-1.193-0.116-1.476-0.589L253.7,67.319
		c-0.329-0.441-0.319-1.156,0.021-1.588l9.104-11.566c0.34-0.432,0.312-1.115-0.063-1.517L248.7,38.586
		c-0.402-0.375-1.085-0.403-1.518-0.063l-11.565,9.103c-0.433,0.34-1.146,0.35-1.588,0.021l-21.961-14.678
		c-0.472-0.282-0.736-0.945-0.588-1.475l3.995-14.199c0.148-0.53-0.139-1.15-0.639-1.378l-18.366-7.609
		c-0.515-0.192-1.156,0.043-1.426,0.522l-7.205,12.843c-0.27,0.479-0.926,0.762-1.459,0.627l-25.915-5.113
		c-0.544-0.079-1.043-0.59-1.107-1.137l-1.744-14.63c-0.064-0.546-0.567-1.02-1.116-1.052c0,0-6.262-0.369-9.944-0.369
		s-9.944,0.369-9.944,0.369c-0.549,0.032-1.051,0.505-1.116,1.052l-1.744,14.63c-0.065,0.546-0.563,1.058-1.108,1.137L106.728,22.3
		c-0.533,0.134-1.19-0.148-1.459-0.627L98.063,8.83c-0.269-0.479-0.911-0.715-1.426-0.522l-18.364,7.609
		c-0.5,0.229-0.788,0.849-0.639,1.378l3.994,14.199c0.148,0.53-0.116,1.193-0.588,1.475L59.079,47.647
		c-0.441,0.329-1.155,0.319-1.587-0.021l-11.567-9.103c-0.432-0.34-1.115-0.312-1.517,0.063L30.347,52.648
		c-0.375,0.402-0.403,1.085-0.063,1.517l9.103,11.566c0.34,0.432,0.35,1.146,0.021,1.587L24.729,89.278
		c-0.282,0.473-0.945,0.737-1.475,0.588L9.053,85.873c-0.53-0.148-1.15,0.139-1.378,0.639l-7.607,18.365
		c-0.192,0.516,0.043,1.157,0.522,1.426l12.843,7.206c0.479,0.269,0.756,1.03,0.615,1.562L9.895,133.599z"/>
	<path fill="#334D5C" d="M283.214,175.989c0.101-0.541-0.268-1.195-0.817-1.195H10.712c-0.55,0-0.918,0.654-0.817,1.195
		l4.153,18.527c0.142,0.533-0.135,1.24-0.615,1.51L0.59,203.26c-0.479,0.27-0.715,0.924-0.522,1.438l7.607,18.371
		c0.229,0.5,0.849,0.791,1.378,0.643l14.202-3.994c0.529-0.148,1.193,0.117,1.475,0.589l14.678,21.961
		c0.329,0.441,0.319,1.155-0.021,1.588l-9.104,11.568c-0.34,0.433-0.312,1.115,0.063,1.518L44.408,271
		c0.402,0.375,1.085,0.403,1.518,0.063l11.566-9.101c0.433-0.34,1.147-0.35,1.588-0.021l21.959,14.674
		c0.472,0.282,0.737,0.946,0.588,1.476l-3.994,14.201c-0.149,0.529,0.139,1.15,0.639,1.379l18.364,7.608
		c0.516,0.192,1.157-0.043,1.426-0.522l7.206-12.841c0.269-0.479,0.926-0.762,1.459-0.627l25.913,5.11
		c0.544,0.079,1.043,0.591,1.108,1.137l1.744,14.63c0.065,0.546,0.567,1.02,1.116,1.052c0,0,6.262,0.369,9.944,0.369
		s9.944-0.369,9.944-0.369c0.549-0.032,1.052-0.506,1.116-1.052l1.744-14.63c0.064-0.546,0.563-1.058,1.107-1.137l25.915-5.11
		c0.533-0.135,1.189,0.147,1.459,0.627l7.205,12.841c0.27,0.479,0.911,0.715,1.426,0.522l18.366-7.608
		c0.5-0.229,0.787-0.85,0.639-1.379l-3.995-14.201c-0.148-0.529,0.116-1.193,0.588-1.476l21.961-14.674
		c0.44-0.329,1.155-0.319,1.588,0.021l11.565,9.101c0.433,0.34,1.115,0.312,1.518-0.063l14.061-14.059
		c0.375-0.402,0.403-1.085,0.063-1.518l-9.104-11.568c-0.34-0.433-0.35-1.146-0.021-1.588l14.678-21.96
		c0.282-0.472,0.946-0.736,1.476-0.588l14.201,3.995c0.529,0.148,1.149-0.139,1.378-0.639l7.606-18.364
		c0.192-0.515-0.043-1.157-0.522-1.426l-12.842-7.207c-0.479-0.269-0.756-1.029-0.615-1.562L283.214,175.989z"/>
</g>
<circle fill="#FFFFFF" cx="146.553" cy="154.794" r="109.622"/>
<circle fill="#334D5C" cx="146.554" cy="154.794" r="84.857"/>
<g>
	<polygon fill="#FFFFFF" points="80.438,135.794 80.438,189.181 104.438,180.137 104.438,135.794 	"/>
	<polygon fill="#FFFFFF" points="132.438,170.051 110.438,177.875 110.438,118.794 132.438,118.794 	"/>
	<polygon fill="#FFFFFF" points="159.438,171.013 138.438,177.875 138.438,109.794 159.438,109.794 	"/>
	<polygon fill="#FFFFFF" points="188.438,168.833 177.421,171.964 176.756,165.819 165.438,168.833 165.438,121.794 
		188.438,121.794 	"/>
	<polygon fill="#FFFFFF" points="215.438,162.046 192.438,167.544 192.438,132.654 215.438,135.414 	"/>
	<polygon fill="#FFFFFF" points="126.438,186.814 172.32,172.393 172.302,179.462 208.081,167.544 160.642,192.787 161.177,181.225 
		116.438,197.022 116.438,186.62 116.438,186.62 88.654,191.438 126.438,175.613 	"/>
</g>
</svg>
