<?xml version="1.0" encoding="utf-8"?>
<!-- Generator: Adobe Illustrator 16.0.4, SVG Export Plug-In . SVG Version: 6.00 Build 0)  -->
<!DOCTYPE svg PUBLIC "-//W3C//DTD SVG 1.1//EN" "http://www.w3.org/Graphics/SVG/1.1/DTD/svg11.dtd">
<svg version="1.1" id="Layer_1" xmlns="http://www.w3.org/2000/svg" xmlns:xlink="http://www.w3.org/1999/xlink" x="0px" y="0px"
	 width="540.859px" height="103.355px" viewBox="0 0 540.859 103.355" enable-background="new 0 0 540.859 103.355"
	 xml:space="preserve">
<g>
	<path opacity="0.8" fill="#DF5A49" d="M53.527,1.959c4.044,1.26,7.767,3.127,11.168,5.601c6.93,5.04,10.393,11.338,10.393,18.897
		c0,13.278-11.483,22.047-34.451,26.311h-0.291C19.125,56.742,8.513,64.156,8.513,75.007c0,5.914,2.907,10.953,8.722,15.119
		c6.01,4.458,13.471,6.686,22.386,6.686c11.338,0.098,22.483-4.264,33.434-13.082c0.679-0.582,1.453-0.822,2.326-0.727
		c0.871,0.098,1.599,0.486,2.18,1.162c1.261,1.649,1.115,3.15-0.436,4.506c-12.21,9.691-24.712,14.585-37.504,14.684
		c-10.077,0-18.872-2.713-26.384-8.142C5.728,89.788,1.971,83.076,1.971,75.081S5.703,60.667,13.164,55.82
		c6.105-4.166,14.731-7.269,25.875-9.303h0.29c19.383-3.682,29.171-10.368,29.363-20.06c0-5.328-2.663-9.979-7.994-13.955
		c-3.642-2.593-7.775-4.359-12.4-5.301"/>
	<path fill="#334D5C" d="M35.046,26.457c0.192,9.692,9.98,16.378,29.364,20.06h0.29c11.143,2.035,19.77,5.137,25.875,9.303
		c7.461,4.848,11.193,11.266,11.193,19.261s-3.757,14.707-11.265,20.133c-7.512,5.429-16.307,8.142-26.384,8.142
		c-12.792-0.099-25.293-4.992-37.504-14.684c-1.551-1.355-1.696-2.856-0.436-4.506c0.581-0.676,1.309-1.064,2.18-1.162
		c0.873-0.096,1.647,0.145,2.326,0.727c10.951,8.818,22.096,13.18,33.434,13.082c8.915,0,16.376-2.228,22.386-6.686
		c5.814-4.166,8.722-9.205,8.722-15.119c0-10.852-10.612-18.266-31.834-22.24h-0.291c-22.967-4.263-34.45-13.033-34.45-26.311
		c0-7.559,3.463-13.857,10.393-18.897C45.971,2.521,54.234,0,63.828,0c4.166,0,8.358,0.704,12.574,2.108
		c4.215,1.406,7.486,2.762,9.812,4.069c2.326,1.309,5.328,3.176,9.012,5.597c1.744,1.163,2.035,2.666,0.872,4.507
		c-1.067,1.744-2.521,2.035-4.361,0.872c-3.488-2.229-6.324-3.973-8.503-5.234c-2.18-1.258-5.087-2.493-8.722-3.707
		c-3.634-1.21-7.194-1.817-10.684-1.817c-8.14,0-15.07,2.035-20.787,6.105C37.71,16.477,35.046,21.128,35.046,26.457z"/>
	<path fill="#334D5C" d="M169.527,71.324c0,4.678-1.838,8.324-5.514,10.941c-3.676,2.617-8.666,3.926-14.968,3.926
		c-6.827,0-12.079-0.812-15.755-2.436v-5.961c2.363,0.921,4.937,1.648,7.72,2.18c2.783,0.534,5.54,0.8,8.271,0.8
		c4.464,0,7.825-0.78,10.083-2.344c2.258-1.563,3.388-3.737,3.388-6.524c0-1.842-0.401-3.351-1.202-4.525
		c-0.801-1.176-2.141-2.261-4.018-3.254c-1.877-0.993-4.733-2.121-8.566-3.381c-5.357-1.769-9.185-3.865-11.482-6.288
		c-2.297-2.423-3.446-5.585-3.446-9.488c0-4.095,1.667-7.355,5.002-9.778s7.746-3.635,13.235-3.635
		c5.724,0,10.989,0.969,15.794,2.908l-2.088,5.38c-4.753-1.842-9.374-2.763-13.865-2.763c-3.545,0-6.315,0.703-8.311,2.108
		c-1.996,1.406-2.994,3.357-2.994,5.853c0,1.841,0.368,3.35,1.103,4.525c0.735,1.175,1.976,2.254,3.722,3.235
		c1.746,0.981,4.417,2.067,8.016,3.253c6.04,1.988,10.194,4.121,12.466,6.398S169.527,67.689,169.527,71.324z"/>
	<path fill="#334D5C" d="M194.264,81.21c1.155,0,2.271-0.078,3.348-0.236c1.077-0.156,1.931-0.32,2.561-0.49v4.615
		c-0.709,0.316-1.753,0.576-3.132,0.782c-1.378,0.206-2.619,0.31-3.722,0.31c-8.35,0-12.525-4.059-12.525-12.178V50.314h-6.184
		v-2.909l6.184-2.508l2.757-8.506h3.781v9.233h12.525v4.69h-12.525v23.445c0,2.398,0.617,4.241,1.851,5.525
		S192.11,81.21,194.264,81.21z"/>
	<path fill="#334D5C" d="M246.877,65.507c0,6.495-1.773,11.565-5.317,15.213c-3.545,3.648-8.443,5.471-14.692,5.471
		c-3.86,0-7.287-0.836-10.281-2.508c-2.993-1.672-5.304-4.072-6.932-7.198s-2.441-6.784-2.441-10.978
		c0-6.494,1.759-11.553,5.278-15.176c3.518-3.623,8.403-5.434,14.652-5.434c6.04,0,10.838,1.854,14.396,5.562
		C245.098,54.167,246.877,59.183,246.877,65.507z M213.988,65.507c0,5.09,1.103,8.967,3.308,11.633
		c2.206,2.666,5.449,3.998,9.729,3.998c4.28,0,7.529-1.327,9.749-3.98c2.218-2.654,3.328-6.536,3.328-11.65
		c0-5.064-1.109-8.91-3.328-11.541c-2.22-2.629-5.495-3.943-9.827-3.943c-4.281,0-7.511,1.296-9.69,3.889
		C215.078,56.505,213.988,60.371,213.988,65.507z"/>
	<path fill="#334D5C" d="M278.033,44.897c1.917,0,3.637,0.146,5.16,0.436l-0.906,5.598c-1.785-0.363-3.361-0.545-4.727-0.545
		c-3.492,0-6.479,1.309-8.96,3.926c-2.482,2.617-3.723,5.877-3.723,9.777v21.374h-6.538V45.624h5.396l0.748,7.379h0.315
		c1.602-2.593,3.531-4.592,5.79-5.998C272.848,45.6,275.328,44.897,278.033,44.897z"/>
	<path fill="#334D5C" d="M288.916,45.624h7.012l9.453,22.719c2.073,5.186,3.36,8.93,3.859,11.231h0.314
		c0.342-1.235,1.057-3.351,2.146-6.343s4.654-12.195,10.695-27.608h7.01l-18.551,45.365c-1.838,4.483-3.985,7.664-6.44,9.542
		c-2.456,1.877-5.47,2.817-9.04,2.817c-1.995,0-3.965-0.206-5.908-0.618v-4.834c1.444,0.289,3.06,0.436,4.846,0.436
		c4.49,0,7.693-2.326,9.61-6.979l2.402-5.672L288.916,45.624z"/>
	<path opacity="0.7" fill="#DF5A49" d="M371.943,70.946c0,4.678-1.838,8.325-5.514,10.941c-3.677,2.617-8.666,3.925-14.968,3.925
		c-6.827,0-12.079-0.811-15.755-2.434v-5.963c2.363,0.922,4.936,1.649,7.72,2.182c2.782,0.533,5.54,0.8,8.271,0.8
		c4.465,0,7.826-0.782,10.084-2.345s3.388-3.737,3.388-6.524c0-1.841-0.4-3.351-1.202-4.526c-0.801-1.175-2.14-2.259-4.017-3.252
		c-1.878-0.994-4.733-2.121-8.567-3.381c-5.356-1.77-9.184-3.865-11.48-6.289c-2.299-2.423-3.447-5.585-3.447-9.487
		c0-4.095,1.668-7.354,5.002-9.778c3.335-2.423,7.746-3.635,13.234-3.635c5.725,0,10.989,0.969,15.795,2.908l-2.088,5.38
		c-4.752-1.842-9.373-2.763-13.863-2.763c-3.546,0-6.316,0.703-8.312,2.108c-1.996,1.405-2.992,3.356-2.992,5.852
		c0,1.842,0.367,3.35,1.102,4.525c0.735,1.176,1.977,2.254,3.723,3.236c1.746,0.981,4.418,2.065,8.016,3.253
		c6.039,1.987,10.195,4.119,12.467,6.398C370.809,64.355,371.943,67.311,371.943,70.946z"/>
	<path opacity="0.7" fill="#DF5A49" d="M388.881,45.246v25.845c0,3.248,0.801,5.672,2.402,7.27c1.602,1.6,4.109,2.4,7.523,2.4
		c4.516,0,7.818-1.14,9.906-3.418c2.088-2.277,3.131-5.998,3.131-11.159V45.246h6.539v39.839h-5.396l-0.945-5.343h-0.354
		c-1.339,1.962-3.197,3.466-5.573,4.507c-2.377,1.041-5.088,1.562-8.134,1.562c-5.253,0-9.185-1.15-11.797-3.451
		c-2.613-2.303-3.919-5.986-3.919-11.051V45.246H388.881z"/>
	<path opacity="0.7" fill="#DF5A49" d="M485.227,85.085V59.168c0-3.175-0.736-5.556-2.207-7.143
		c-1.471-1.586-3.755-2.381-6.853-2.381c-4.071,0-7.077,1.08-9.021,3.236c-1.943,2.157-2.914,5.477-2.914,9.959v22.246h-6.539
		V59.168c0-3.175-0.735-5.556-2.205-7.143c-1.471-1.586-3.77-2.381-6.894-2.381c-4.097,0-7.097,1.133-9,3.398
		c-1.904,2.268-2.856,5.98-2.856,11.143v20.9h-6.537V45.246h5.316l1.064,5.454h0.314c1.234-1.939,2.975-3.454,5.22-4.544
		c2.245-1.09,4.759-1.636,7.542-1.636c6.748,0,11.16,2.253,13.234,6.761h0.315c1.286-2.084,3.151-3.732,5.593-4.944
		c2.442-1.211,5.225-1.817,8.351-1.817c4.884,0,8.54,1.157,10.97,3.471c2.428,2.314,3.644,6.017,3.644,11.105v25.989H485.227z"/>
	<path opacity="0.7" fill="#DF5A49" d="M540.859,65.13c0,6.494-1.772,11.564-5.317,15.212s-8.442,5.47-14.691,5.47
		c-3.86,0-7.287-0.835-10.28-2.507c-2.994-1.672-5.305-4.071-6.934-7.197c-1.627-3.126-2.441-6.784-2.441-10.978
		c0-6.495,1.76-11.554,5.277-15.177c3.52-3.622,8.404-5.434,14.652-5.434c6.04,0,10.838,1.854,14.397,5.562
		C539.08,53.789,540.859,58.805,540.859,65.13z M507.971,65.13c0,5.088,1.103,8.967,3.308,11.633
		c2.206,2.664,5.448,3.998,9.729,3.998c4.279,0,7.529-1.327,9.748-3.981c2.219-2.653,3.328-6.536,3.328-11.649
		c0-5.065-1.109-8.912-3.328-11.541c-2.219-2.63-5.494-3.945-9.827-3.945c-4.28,0-7.511,1.297-9.688,3.89
		C509.06,56.128,507.971,59.994,507.971,65.13z"/>
	<g>
		<path fill="#334D5C" d="M0,90.524"/>
	</g>
</g>
</svg>
