<?xml version="1.0" encoding="utf-8"?>
<!-- Generator: Adobe Illustrator 16.0.4, SVG Export Plug-In . SVG Version: 6.00 Build 0)  -->
<!DOCTYPE svg PUBLIC "-//W3C//DTD SVG 1.1//EN" "http://www.w3.org/Graphics/SVG/1.1/DTD/svg11.dtd">
<svg version="1.1" id="Layer_1" xmlns="http://www.w3.org/2000/svg" xmlns:xlink="http://www.w3.org/1999/xlink" x="0px" y="0px"
	 width="2192px" height="2500px" viewBox="0 0 2192 2500" enable-background="new 0 0 2192 2500" xml:space="preserve">
<path fill="#334D5C" d="M1915.982,490.925c-1.721-12.5-12.671-19.418-21.721-20.18c-9.032-0.754-200.196-14.923-200.196-14.923
	S1561.3,324.016,1546.728,309.426c-14.58-14.581-43.057-10.146-54.109-6.892c-1.627,0.479-29.007,8.93-74.298,22.945
	c-44.35-127.62-122.62-244.897-260.316-244.897c-3.802,0-7.715,0.154-11.627,0.377c-39.161-51.79-87.672-74.29-129.572-74.29
	c-320.762,0-474.007,400.985-522.055,604.751c-124.641,38.622-213.185,66.079-224.495,69.632
	c-69.572,21.824-71.772,24.016-80.907,89.572C182.473,820.257,0.435,2228.039,0.435,2228.039l1418.476,265.771l768.579-166.267
	c0,0-269.804-1824.118-271.499-1836.618H1915.982z M1339.921,349.726l-120.025,37.149c0.043-8.459,0.086-16.781,0.086-25.882
	c0-79.315-11.011-143.176-28.673-193.801C1262.259,176.096,1309.51,256.824,1339.921,349.726z M1103.295,182.919
	c19.726,49.426,32.551,120.36,32.551,216.079c0,4.897-0.043,9.375-0.085,13.904c-78.057,24.178-162.877,50.428-247.886,76.764
	C935.606,305.454,1025.075,216.481,1103.295,182.919L1103.295,182.919z M1007.995,92.706c13.844,0,27.791,4.7,41.139,13.887
	c-102.8,48.374-212.988,170.206-259.521,413.501l-195.942,60.686c54.504-185.574,183.922-488.074,414.315-488.074H1007.995z"/>
<path fill="#3A5968" d="M1894.262,470.745c-9.032-0.754-200.196-14.923-200.196-14.923S1561.3,324.016,1546.728,309.426
	c-5.453-5.428-12.808-8.21-20.496-9.409l-107.252,2193.776l768.511-166.25c0,0-269.812-1824.118-271.508-1836.618
	C1914.262,478.425,1903.312,471.507,1894.262,470.745"/>
<path fill="#FFFFFF" d="M1158.004,895.42l-94.77,281.9c0,0-83.03-44.315-184.812-44.315c-149.212,0-156.721,93.639-156.721,117.235
	c0,128.749,335.616,178.082,335.616,479.657c0,237.269-150.487,390.051-353.398,390.051c-243.493,0-368.014-151.541-368.014-151.541
	l65.196-215.411c0,0,127.997,109.889,236.002,109.889c70.573,0,99.281-55.564,99.281-96.164
	c0-167.945-275.343-175.437-275.343-451.404c0-232.269,166.712-457.037,503.236-457.037
	C1093.945,858.279,1158.004,895.42,1158.004,895.42"/>
</svg>
