<?xml version="1.0" encoding="utf-8"?>
<!-- Generator: Adobe Illustrator 16.0.4, SVG Export Plug-In . SVG Version: 6.00 Build 0)  -->
<!DOCTYPE svg PUBLIC "-//W3C//DTD SVG 1.1//EN" "http://www.w3.org/Graphics/SVG/1.1/DTD/svg11.dtd">
<svg version="1.1" id="Capa_1" xmlns="http://www.w3.org/2000/svg" xmlns:xlink="http://www.w3.org/1999/xlink" x="0px" y="0px"
	 width="430.113px" height="430.113px" viewBox="0 0 430.113 430.113" enable-background="new 0 0 430.113 430.113"
	 xml:space="preserve">
<g>
	<path id="Squarespace" fill="#334D5C" d="M71.232,197.391l129.156-129.93c32.425-32.604,84.977-32.604,117.385,0
		c7.762,8.172,7.396,21.396-0.59,29.428c-8.109,8.163-21.225,8.163-29.354,0l-1.961-2.272c-16.298-13.899-40.752-13.11-56.136,2.373
		L97.675,229.817c-8.697,8.062-21.83,8.062-29.932-0.089c-8.109-8.145-8.109-21.37,0-29.519
		C68.833,199.125,69.995,198.189,71.232,197.391z M361.201,200.214c-8.111-8.149-21.23-8.149-29.342,0
		c-1.084,1.099-2.025,2.275-2.828,3.523l-128.638,129.4c-16.211,16.297-42.491,16.297-58.698,0l-0.588-0.095
		c-8.095-8.147-21.228-8.147-29.342,0c-8.097,8.136-8.097,21.375,0,29.506c1.036,1.041,2.14,1.951,3.307,2.74
		c32.593,29.935,83.142,29.065,114.661-2.638l131.468-132.918C369.296,221.589,369.296,208.363,361.201,200.214z M159.265,285.943
		c-1.23,0.812-2.404,1.746-3.479,2.829c-8.111,8.14-8.111,21.37,0,29.505c8.1,8.148,21.228,8.148,29.93,0.104l132.057-132.852
		c16.209-16.297,42.488-16.297,58.686,0c16.227,16.305,16.227,42.748,0,59.047L251.24,371.132c16.223,16.293,42.488,16.293,58.691,0
		l95.881-97.039c32.398-32.6,32.398-85.462,0-118.08c-32.402-32.583-84.959-32.583-117.387,0L159.265,285.943z M141.69,274.093
		l131.47-132.916c8.106-8.158,8.106-21.382,0-29.515c-8.097-8.158-21.244-8.158-29.342,0c-1.092,1.076-2.025,2.263-2.818,3.512
		L112.351,244.58c-16.209,16.307-42.48,16.307-58.682,0c-16.225-16.297-16.225-42.742,0-59.045L178.887,58.993
		c-16.202-16.312-42.491-16.312-58.698,0l-95.878,97.02c-32.415,32.618-32.415,85.48,0,118.08
		C56.729,306.708,109.299,306.708,141.69,274.093z"/>
</g>
</svg>
