<?xml version="1.0" encoding="utf-8"?>
<!-- Generator: Adobe Illustrator 16.0.4, SVG Export Plug-In . SVG Version: 6.00 Build 0)  -->
<!DOCTYPE svg PUBLIC "-//W3C//DTD SVG 1.1//EN" "http://www.w3.org/Graphics/SVG/1.1/DTD/svg11.dtd">
<svg version="1.1" id="Layer_1" xmlns="http://www.w3.org/2000/svg" xmlns:xlink="http://www.w3.org/1999/xlink" x="0px" y="0px"
	 width="800px" height="800px" viewBox="0 0 800 800" enable-background="new 0 0 800 800" xml:space="preserve">
<g id="Bg" display="none">
	<rect x="-4450" y="-9675" display="inline" fill="#666666" width="10637.5" height="13162.5"/>
</g>
<g>
	<path fill="#334D5C" d="M0,399.55C0.312,177.475,178.875-0.375,401.2-0.05C622.5,0.275,800.287,179.6,800,402.213
		c-0.287,220.462-179.713,398.274-401.463,397.824C177.237,799.6-0.312,621.175,0,399.55z M279.25,640.763
		c-4.587,29.325-9.337,57.812-13.388,86.412c-1.85,13.101,5.45,19.638,18.588,18.213c13.087-1.413,16.137-11.275,19.4-21.726
		c34.663-111.35,67.775-223.225,104.9-333.762c29.763-88.6,64.3-175.612,97.188-263.15c5.338-14.2,13.862-27.175,19.338-41.337
		c2.362-6.1,3.512-17.175,0.212-19.863c-4.763-3.887-15.3-4.95-21.188-2.325c-10.725,4.8-21.1,11.95-29.35,20.362
		c-14.638,14.913-27.588,31.5-41.075,47.188c-157.15-11.65-258.888,67.712-294.625,180.863
		C99.288,438.188,144.413,567.65,279.25,640.763z M521.312,161.525c-7.225,19.45-12.825,38.087-20.925,55.55
		c-14.2,30.637-7.15,54.35,14.725,79.825c71.288,83.013,39.4,207.15-62.013,247.875c-16.562,6.649-33.712,11.925-50.05,19.062
		c-8.45,3.699-18.812,8.35-22.925,15.625c-14.213,25.062-22.338,52.712-29.15,80.862C460.4,675.85,604.275,619.7,650.775,483.463
		C696.85,348.462,628.237,217.15,521.312,161.525z"/>
	<path fill="#FFFFFF" d="M279.25,640.763c-134.85-73.112-179.962-202.575-140-329.125
		c35.737-113.15,137.475-192.513,294.625-180.863c13.487-15.688,26.438-32.275,41.075-47.188c8.25-8.4,18.625-15.562,29.35-20.362
		c5.888-2.638,16.413-1.575,21.188,2.325c3.3,2.688,2.138,13.775-0.212,19.863c-5.476,14.15-14.013,27.137-19.338,41.337
		C473.05,214.288,438.513,301.3,408.75,389.9c-37.125,110.525-70.237,222.4-104.9,333.762c-3.25,10.463-6.3,20.312-19.4,21.726
		c-13.125,1.425-20.438-5.112-18.588-18.213C269.913,698.575,274.663,670.088,279.25,640.763z M379.325,239.612
		c-76.85,17.238-124.338,60.15-138.113,123.463c-12.975,59.638,5.462,115.688,58.1,163.612
		C318.013,429.188,338.688,332.812,379.325,239.612z"/>
	<path fill="#FFFFFF" d="M521.312,161.525c106.925,55.613,175.537,186.938,129.463,321.938
		C604.275,619.7,460.4,675.862,350.975,660.325c6.812-28.15,14.938-55.8,29.15-80.862c4.125-7.263,14.487-11.926,22.925-15.625
		c16.338-7.15,33.487-12.413,50.05-19.062C554.513,504.037,586.4,379.9,515.112,296.9c-21.875-25.475-28.925-49.2-14.725-79.825
		C508.487,199.612,514.088,180.975,521.312,161.525z"/>
	<path fill="#334D5C" d="M379.325,239.612c-40.638,93.188-61.312,189.562-80.013,287.075c-52.65-47.925-71.087-103.975-58.1-163.612
		C254.987,299.775,302.475,256.85,379.325,239.612z"/>
</g>
<g id="White" display="none">
	<g display="inline">
		<path fill="#FFFFFF" d="M0,399.55C0.312,177.475,178.875-0.375,401.2-0.05C622.5,0.275,800.287,179.6,800,402.213
			c-0.287,220.462-179.713,398.274-401.463,397.824C177.237,799.6-0.312,621.175,0,399.55z M279.25,640.763
			c-4.587,29.325-9.337,57.812-13.388,86.412c-1.85,13.101,5.45,19.638,18.588,18.213c13.087-1.413,16.137-11.275,19.4-21.726
			c34.663-111.35,67.775-223.225,104.9-333.762c29.763-88.6,64.3-175.612,97.188-263.15c5.338-14.2,13.862-27.175,19.338-41.337
			c2.362-6.1,3.512-17.175,0.212-19.863c-4.763-3.887-15.3-4.95-21.188-2.325c-10.725,4.8-21.1,11.95-29.35,20.362
			c-14.638,14.913-27.588,31.5-41.075,47.188c-157.15-11.65-258.888,67.712-294.625,180.863
			C99.288,438.188,144.413,567.65,279.25,640.763z M521.312,161.525c-7.225,19.45-12.825,38.087-20.925,55.55
			c-14.2,30.637-7.15,54.35,14.725,79.825c71.288,83.013,39.4,207.15-62.013,247.875c-16.562,6.649-33.712,11.925-50.05,19.062
			c-8.45,3.699-18.812,8.35-22.925,15.625c-14.213,25.062-22.338,52.712-29.15,80.862C460.4,675.85,604.275,619.7,650.775,483.463
			C696.85,348.462,628.237,217.15,521.312,161.525z"/>
		<path fill="#FFFFFF" d="M379.325,239.612c-40.638,93.188-61.312,189.562-80.013,287.075
			c-52.65-47.925-71.087-103.975-58.1-163.612C254.987,299.775,302.475,256.85,379.325,239.612z"/>
	</g>
</g>
</svg>
